<?xml version="1.0" encoding="UTF-8"?>
<!-- Uploaded to: SVG Repo, www.svgrepo.com, Generator: SVG Repo Mixer Tools -->
<svg width="800px" height="800px" viewBox="0 0 20 20" version="1.1" xmlns="http://www.w3.org/2000/svg" xmlns:xlink="http://www.w3.org/1999/xlink">
    <title>communication / 14 - communication, bubble, texting, chat, comment, talk, speech icon</title>
    <g id="Free-Icons" stroke="none" stroke-width="1" fill="none" fill-rule="evenodd">
        <g transform="translate(-1117.000000, -156.000000)" id="Group">
            <g transform="translate(1115.000000, 154.000000)" id="Shape">
                <path d="M8.6109715,18.5930706 L4.8,21 L5.46773712,16.7827129 C3.88371393,15.3227187 3,13.2946794 3,11.0526316 C3,6.60528596 6.4771525,3 12,3 C17.5228475,3 21,6.60528596 21,11.0526316 C21,15.4999772 17.5228475,19.1052632 12,19.1052632 C10.7621927,19.1052632 9.62714465,18.9241626 8.6109715,18.5930706 L8.6109715,18.5930706 Z" stroke="#000000" stroke-width="2" stroke-linecap="round" stroke-linejoin="round">
</path>
                <path d="M8.00439261,10 C8.55667736,10 9.00439261,10.4477153 9.00439261,11 C9.00439261,11.5128358 8.61835242,11.9355072 8.12101374,11.9932723 L8.00439261,12 C7.44771525,12 7,11.5522847 7,11 C7,10.4871642 7.38604019,10.0644928 7.88337887,10.0067277 L8.00439261,10 Z" fill="#000000">
</path>
                <path d="M12.0043926,10 C12.5566774,10 13.0043926,10.4477153 13.0043926,11 C13.0043926,11.5128358 12.6183524,11.9355072 12.1210137,11.9932723 L12.0043926,12 C11.4477153,12 11,11.5522847 11,11 C11,10.4871642 11.3860402,10.0644928 11.8833789,10.0067277 L12.0043926,10 Z" fill="#000000">
</path>
                <path d="M16.0043926,10 C16.5566774,10 17.0043926,10.4477153 17.0043926,11 C17.0043926,11.5128358 16.6183524,11.9355072 16.1210137,11.9932723 L16.0043926,12 C15.4477153,12 15,11.5522847 15,11 C15,10.4871642 15.3860402,10.0644928 15.8833789,10.0067277 L16.0043926,10 Z" fill="#000000">
</path>
            </g>
        </g>
    </g>
</svg>