<?xml version="1.0" encoding="iso-8859-1"?>
<!-- Uploaded to: SVG Repo, www.svgrepo.com, Generator: SVG Repo Mixer Tools -->
<svg height="800px" width="800px" version="1.1" id="Layer_1" xmlns="http://www.w3.org/2000/svg" xmlns:xlink="http://www.w3.org/1999/xlink" 
	 viewBox="0 0 511.99 511.99" xml:space="preserve">
<path style="fill:#CACFD6;" d="M385.239,276.291L350.52,79.327c-0.844-4.75-4.766-8.359-9.577-8.781
	c-4.812-0.422-9.297,2.453-10.953,6.984l-29.171,80.154c-0.641,1.766-0.812,3.656-0.484,5.5L322.24,287.4
	c0.906,5.172,5.406,8.812,10.484,8.812c0.609,0,1.234-0.062,1.859-0.172l42.015-7.406c2.781-0.484,5.266-2.062,6.875-4.375
	C385.099,281.932,385.739,279.072,385.239,276.291z"/>
<path style="fill:#E6E9ED;" d="M334.615,40.937c-14.702-21-36.702-35.015-61.952-39.468C267.124,0.5,261.483,0,255.891,0
	c-46.608,0-86.311,33.358-94.42,79.326c-4.453,25.249,1.203,50.718,15.906,71.717c14.703,21,36.703,35.015,61.952,39.468
	c5.531,0.969,11.172,1.469,16.766,1.469l0,0c46.616,0,86.318-33.358,94.426-79.326C354.974,87.405,349.317,61.936,334.615,40.937z
	 M287.507,101.545c-2.703,15.328-15.945,26.438-31.459,26.438c-1.875,0-3.75-0.156-5.609-0.484
	c-17.375-3.062-29.015-19.688-25.953-37.062c2.703-15.328,15.937-26.453,31.453-26.453c1.874,0,3.749,0.172,5.608,0.5
	c8.422,1.484,15.758,6.156,20.664,13.156C287.1,84.64,288.991,93.123,287.507,101.545z"/>
<path style="fill:#CACFD6;" d="M228.907,188.058l11.328-64.232c-11.453-6.5-18.156-19.703-15.75-33.39
	c0.906-5.093-40.89-13.89-41.374-11.109l-11.125,63.077c1.641,2.953,3.422,5.828,5.391,8.64c3.641,5.203,7.734,9.984,12.219,14.281
	l12.671-71.795l21,3.703l-14.531,82.342C215.079,183.153,221.829,185.996,228.907,188.058z"/>
<path style="fill:#E6E9ED;" d="M215.845,78.077l-42.015-7.406c-2.781-0.484-5.656,0.141-7.968,1.766s-3.891,4.109-4.391,6.891
	l-34.718,196.964c-0.5,2.781,0.141,5.641,1.766,7.969c1.625,2.312,4.093,3.891,6.875,4.375l42.015,7.406
	c0.625,0.109,1.25,0.172,1.859,0.172c5.078,0,9.578-3.641,10.484-8.812l34.733-196.964C225.517,84.64,221.642,79.108,215.845,78.077
	z"/>
<path style="fill:#5D9CEC;" d="M443.643,484.661l-37.389-212.073c-1.031-5.812-6.562-9.687-12.359-8.655l-84.014,14.812
	c-2.781,0.484-5.266,2.062-6.891,4.391c-1.609,2.312-2.25,5.172-1.766,7.969l37.405,212.073c0.906,5.172,5.405,8.812,10.483,8.812
	c0.609,0,1.234-0.047,1.859-0.156l84.014-14.828c2.797-0.484,5.266-2.062,6.891-4.375S444.128,487.442,443.643,484.661z"/>
<path style="fill:#656D78;" d="M436.237,442.647L413.66,314.586c-0.5-2.781-2.078-5.266-4.391-6.891
	c-2.312-1.609-5.187-2.25-7.968-1.766l-42,7.406c-5.812,1.031-9.672,6.562-8.656,12.359l22.578,128.06
	c0.5,2.797,2.078,5.266,4.391,6.891c1.797,1.266,3.938,1.922,6.109,1.922c0.625,0,1.234-0.047,1.859-0.156l41.999-7.406
	c2.796-0.484,5.265-2.062,6.89-4.391C436.097,448.304,436.722,445.444,436.237,442.647z"/>
<g>
	<path style="fill:#434A54;" d="M391.677,356.227c-3.375,4.828-2.203,11.468,2.625,14.843c4.828,3.391,11.469,2.203,14.858-2.609
		c3.375-4.828,2.203-11.483-2.624-14.858C401.708,350.227,395.067,351.399,391.677,356.227z"/>
	<path style="fill:#434A54;" d="M399.099,398.225c-3.391,4.828-2.219,11.484,2.609,14.859s11.468,2.203,14.858-2.625
		c3.375-4.828,2.203-11.469-2.625-14.844C409.113,392.225,402.474,393.413,399.099,398.225z"/>
</g>
<path style="fill:#5D9CEC;" d="M209.001,283.135c-1.625-2.328-4.109-3.906-6.891-4.391l-84.014-14.812
	c-5.797-1.031-11.328,2.844-12.359,8.655L68.347,484.66c-0.484,2.781,0.141,5.656,1.766,7.969s4.094,3.891,6.891,4.375
	l84.014,14.828c0.625,0.109,1.25,0.156,1.859,0.156c5.078,0,9.578-3.641,10.484-8.812l37.406-212.073
	C211.251,288.307,210.611,285.447,209.001,283.135z"/>
<path style="fill:#656D78;" d="M152.69,313.337l-41.999-7.406c-5.796-1.016-11.328,2.859-12.359,8.656l-22.578,128.06
	c-0.484,2.797,0.141,5.656,1.766,7.968c1.625,2.328,4.094,3.906,6.891,4.391l41.999,7.406c0.625,0.109,1.234,0.156,1.859,0.156
	c2.171,0,4.312-0.656,6.109-1.922c2.328-1.625,3.891-4.094,4.391-6.891l22.578-128.06
	C162.377,319.899,158.502,314.368,152.69,313.337z"/>
<g>
	<path style="fill:#434A54;" d="M120.3,356.227c3.391,4.828,2.219,11.468-2.609,14.843c-4.828,3.391-11.468,2.203-14.859-2.609
		c-3.375-4.828-2.203-11.483,2.625-14.858C110.285,350.227,116.925,351.399,120.3,356.227z"/>
	<path style="fill:#434A54;" d="M112.894,398.225c3.391,4.828,2.219,11.484-2.609,14.859s-11.484,2.203-14.859-2.625
		s-2.203-11.469,2.625-14.844C102.879,392.225,109.519,393.413,112.894,398.225z"/>
</g>
</svg>